Coordinates
version=1
nRows=8
nColumns=36
inDegrees=yes

Units are S.I. units (second, meters, Newtons, ...)
If the header above contains a line with 'inDegrees', this indicates whether rotational values are in degrees (yes) or radians (no).

endheader
time	pelvis_tilt	pelvis_list	pelvis_rotation	pelvis_tx	pelvis_ty	pelvis_tz	hip_flexion_r	hip_adduction_r	hip_rotation_r	knee_angle_r	knee_angle_r_beta	ankle_angle_r	subtalar_angle_r	mtp_angle_r	hip_flexion_l	hip_adduction_l	hip_rotation_l	knee_angle_l	knee_angle_l_beta	ankle_angle_l	subtalar_angle_l	mtp_angle_l	lumbar_extension	lumbar_bending	lumbar_rotation	arm_flex_r	arm_add_r	arm_rot_r	elbow_flex_r	pro_sup_r	arm_flex_l	arm_add_l	arm_rot_l	elbow_flex_l	pro_sup_l
      0.55000000	     -5.25508191	      4.21357296	     86.15437840	     -0.20781242	      0.94562403	      0.30812320	     -8.40123640	     -9.89544906	     -1.93332366	     46.32614849	      0.80854382	    -27.35628895	     -9.57768033	     -7.50048420	     16.06710774	      6.15350050	    -12.61167980	     22.73283426	      0.39676281	      0.57452295	     -5.62205705	     -7.50048420	    -16.59215653	     -6.88602362	      2.19844825	      2.68670245	     -4.29739768	    -31.99910628	     49.04395606	     99.68105499	     -4.75284247	     -3.10679121	    -42.07709767	     24.61975070	     87.03408287
      0.56000000	     -5.43857210	      4.02712155	     85.61334794	     -0.20821850	      0.94753203	      0.29558330	     -6.37304508	    -10.33773658	     -1.21001229	     49.20016377	      0.85870485	    -28.84685633	    -11.39993940	     -7.50047546	     15.13908028	      6.40925282	    -13.00722676	     22.16065427	      0.38677638	      1.27088922	     -5.24360597	     -7.50047546	    -16.29944731	     -7.18602925	      2.32753834	      2.67525395	     -4.19207903	    -32.19440350	     47.86952003	     99.92295246	     -4.39959597	     -3.12662936	    -41.99572523	     24.64394496	     87.08777249
      0.57000000	     -5.38118551	      3.45742659	     85.09936467	     -0.20845782	      0.94897905	      0.28360689	     -3.87781017	    -10.28076162	     -0.32475666	     51.97793086	      0.90718603	    -28.66941936	    -13.41776394	     -7.50038513	     14.66057896	      6.33407718	    -13.48249165	     21.65882217	      0.37801776	      1.93676656	     -4.49702835	     -7.50038513	    -15.66125530	     -7.16526459	      2.42041102	      2.96768018	     -3.84026631	    -33.43432395	     46.51727875	    102.72125323	     -4.20433814	     -3.19377712	    -41.48242245	     24.90282199	     87.81842615
      0.58000000	     -5.52263318	      3.23482918	     84.53321249	     -0.20884721	      0.95095844	      0.27157576	     -1.79553297	    -10.63652272	      0.09835802	     54.40874570	      0.94961175	    -27.45676647	    -15.95722841	     -7.50036917	     13.68697658	      6.58646556	    -13.93624627	     20.82296573	      0.36342931	      2.37964383	     -4.12802127	     -7.50036917	    -15.42302171	     -7.36382228	      2.46471162	      3.02908191	     -3.85067573	    -33.48557132	     45.48756852	    102.67096302	     -3.69168150	     -3.15199753	    -41.65495491	     25.00634967	     87.71649105
      0.59000000	     -5.50092447	      3.28294201	     84.17885289	     -0.20957897	      0.95323475	      0.25972971	     -0.10620545	    -10.72310795	      0.31864919	     56.49209962	      0.98597314	    -25.26298752	    -18.58806100	     -7.50036293	     12.36059751	      6.81905971	    -13.88028998	     19.87203394	      0.34683242	      2.91512451	     -3.74179605	     -7.50036293	    -15.56384944	     -7.34000073	      2.35617117	      3.06115977	     -3.95707184	    -33.45716472	     44.69337443	    102.52997813	     -3.06165490	     -3.15003138	    -41.50110907	     25.07405550	     87.60688244
      0.60000000	     -5.54578770	      2.73704325	     83.44323957	     -0.20952068	      0.95457669	      0.24806090	      2.54580242	    -10.78494821	      0.82615899	     58.58819184	      1.02255685	    -23.35060879	    -21.80106570	     -7.50034692	     11.72189850	      6.81115913	    -15.07305806	     18.97952723	      0.33125524	      3.25564893	     -2.65809889	     -7.50034692	    -14.93061127	     -7.46691999	      2.57555609	      3.18785513	     -3.86229564	    -33.94674266	     43.56313334	    102.70641394	     -2.74571645	     -3.15177313	    -41.36567682	     25.69158012	     87.61683252
      0.61000000	     -5.51146560	      2.53118379	     83.05816169	     -0.21001397	      0.95630867	      0.23646184	      4.61405540	    -10.65214547	      1.15340921	     60.16085785	      1.05000505	    -21.60780518	    -24.74334221	     -7.50034040	     10.75472943	      6.93340961	    -15.53144647	     18.14815314	      0.31674503	      3.58082036	     -2.25811864	     -7.50034040	    -14.76758826	     -7.39981309	      2.45631603	      3.22178701	     -3.87554351	    -34.14122611	     42.82106339	    102.97242277	     -2.19393166	     -3.21126505	    -41.06760642	     26.08247049	     87.73634045
      0.62000000	     -5.53141094	      2.22072950	     82.47692812	     -0.21046045	      0.95780281	      0.22461386	      6.84463752	    -10.59921974	      1.52911357	     61.44346188	      1.07239071	    -19.78662319	    -27.56156504	     -7.50029558	      9.78906775	      7.11803684	    -16.13085421	     17.08101719	      0.29811999	      3.96998423	     -1.22393515	     -7.50029558	    -14.38582183	     -7.41915594	      2.62373558	      3.18182825	     -3.91531503	    -34.62320636	     41.95400743	    102.45009386	     -1.93982318	     -3.37218339	    -39.47771654	     26.69633754	     86.04503751
